<?xml version="1.0" encoding="UTF-8" standalone="no"?>
<svg width="886px" height="1150px" viewBox="0 0 886 1150" version="1.1" xmlns="http://www.w3.org/2000/svg" xmlns:xlink="http://www.w3.org/1999/xlink" xmlns:sketch="http://www.bohemiancoding.com/sketch/ns">
    <!-- Generator: Sketch 3.4.4 (17249) - http://www.bohemiancoding.com/sketch -->
    <title>S</title>
    <desc>Created with Sketch.</desc>
    <defs></defs>
    <g id="Page-1" stroke="none" stroke-width="1" fill="none" fill-rule="evenodd" sketch:type="MSPage">
        <path d="M858.2,619.8 C861.400016,628.333376 864.33332,637.93328 867,648.6 C869.66668,659.26672 871,668.866624 871,677.4 L871,722.2 L871,840.6 L871,919 C871,927.533376 869.66668,937.13328 867,947.8 C864.33332,958.46672 861.400016,967.533296 858.2,975 L711,1122.2 C703.533296,1126.46669 694.200056,1129.66666 683,1131.8 C671.799944,1133.93334 661.933376,1135 653.4,1135 L618.2,1135 L255,1135 L45.4,1135 C25.133232,1135 15,1124.86677 15,1104.6 L15,911 C15,902.466624 17.933304,895.266696 23.8,889.4 C29.666696,883.533304 36.866624,880.6 45.4,880.6 L299.8,880.6 L437.4,880.6 L589.4,880.6 C597.933376,880.6 605.133304,877.93336 611,872.6 C616.866696,867.26664 619.8,860.333376 619.8,851.8 L619.8,719 C619.8,710.466624 616.866696,703.266696 611,697.4 C605.133304,691.533304 597.933376,688.6 589.4,688.6 L445.4,688.6 L253.4,688.6 L231,688.6 C222.466624,688.6 212.86672,687.533344 202.2,685.4 C191.53328,683.266656 182.466704,680.600016 175,677.4 L27.8,530.2 C23.533312,521.666624 20.333344,512.06672 18.2,501.4 C16.066656,490.73328 15,481.133376 15,472.6 L15,442.2 L15,259.8 L15,231 C15,222.466624 16.066656,212.86672 18.2,202.2 C20.333344,191.53328 23.533312,182.466704 27.8,175 L175,27.8 C182.466704,24.599984 191.53328,21.66668 202.2,19 C212.86672,16.33332 222.466624,15 231,15 L261.4,15 L706.2,15 L805.4,15 C813.933376,15 821.133304,17.933304 827,23.8 C832.866696,29.666696 835.8,36.866624 835.8,45.4 L835.8,242.2 C835.8,250.733376 832.866696,257.933304 827,263.8 C821.133304,269.666696 813.933376,272.6 805.4,272.6 L693.4,272.6 L399,272.6 L295,272.6 C286.466624,272.6 279.266696,275.26664 273.4,280.6 C267.533304,285.93336 264.6,292.866624 264.6,301.4 L264.6,431 C264.6,439.533376 267.533304,446.733304 273.4,452.6 C279.266696,458.466696 286.466624,461.4 295,461.4 L397.4,461.4 L615,461.4 L653.4,461.4 C661.933376,461.4 671.799944,462.466656 683,464.6 C694.200056,466.733344 703.533296,469.399984 711,472.6 L858.2,619.8 Z" id="S" stroke="#479FDF" stroke-width="30" fill-opacity="0" fill="#181C1E" sketch:type="MSShapeGroup"></path>
    </g>
</svg>