<?xml version="1.0" encoding="UTF-8" standalone="no"?>
<svg width="974px" height="1405px" viewBox="0 0 974 1405" version="1.1" xmlns="http://www.w3.org/2000/svg" xmlns:xlink="http://www.w3.org/1999/xlink" xmlns:sketch="http://www.bohemiancoding.com/sketch/ns">
    <!-- Generator: Sketch 3.4.4 (17249) - http://www.bohemiancoding.com/sketch -->
    <title>S</title>
    <desc>Created with Sketch.</desc>
    <defs></defs>
    <g id="Page-1" stroke="none" stroke-width="1" fill="none" fill-rule="evenodd" sketch:type="MSPage">
        <g id="icon" sketch:type="MSLayerGroup" transform="translate(-509.000000, -331.000000)" stroke="#479FDF" stroke-width="50" fill="#000000" fill-opacity="0">
            <path d="M1352.36547,426.145612 C1262.73496,383.278849 1145.82561,356 1017.22532,356 C771.715683,356 549.587914,527.46705 549.587914,761.285755 C549.587914,985.362014 748.333813,1063.30158 968.513094,1108.11683 C1112.70129,1137.34417 1239.35309,1182.15942 1239.35309,1306.86273 C1239.35309,1431.56604 1128.28921,1507.55712 982.152518,1507.55712 C871.088633,1507.55712 783.406619,1470.53583 717.157986,1437.41151 C689.879137,1427.66906 662.600288,1415.97813 629.475971,1415.97813 C574.918273,1415.97813 534,1468.58734 534,1525.09353 C534,1571.85727 559.33036,1604.98158 613.888058,1632.26043 C693.776115,1671.23022 832.118849,1710.2 984.101007,1710.2 C1258.83799,1708.25151 1457.58388,1550.42388 1457.58388,1299.06878 C1457.58388,1053.55914 1268.58043,973.671079 1032.81324,923.01036 C894.470504,891.834532 767.818705,866.504173 767.818705,747.646331 C767.818705,634.633957 878.88259,550.848921 1011.37986,550.848921 C1102.95885,550.848921 1175.05295,572.282302 1229.61065,597.612662 C1254.94101,607.355108 1293.91079,622.943022 1323.13813,622.943022 C1377.69583,622.943022 1416.66561,566.436835 1416.66561,523.570072 C1416.66561,476.806331 1393.28374,445.630504 1352.36547,426.145612 L1352.36547,426.145612 Z" id="S" sketch:type="MSShapeGroup"></path>
        </g>
    </g>
</svg>