<?xml version="1.0" encoding="UTF-8" standalone="no"?>
<svg width="893px" height="1588px" viewBox="0 0 893 1588" version="1.1" xmlns="http://www.w3.org/2000/svg" xmlns:xlink="http://www.w3.org/1999/xlink" xmlns:sketch="http://www.bohemiancoding.com/sketch/ns">
    <!-- Generator: Sketch 3.4.4 (17249) - http://www.bohemiancoding.com/sketch -->
    <title>S</title>
    <desc>Created with Sketch.</desc>
    <defs></defs>
    <g id="Page-1" stroke="none" stroke-width="1" fill="none" fill-rule="evenodd" sketch:type="MSPage">
        <path d="M752.103148,440.256659 C752.103148,396.679362 744.413152,355.986468 729.03293,318.176755 C713.652708,280.367043 692.184803,247.364144 664.628571,219.16707 C637.07234,190.969996 605.030691,169.181675 568.502663,153.801453 C531.974636,138.421231 492.563408,130.731235 450.267797,130.731235 C404.12713,130.731235 361.832154,138.100814 323.381598,152.840194 C284.931043,167.579573 251.928144,188.406645 224.371913,215.322034 C196.815681,242.237423 175.02736,274.279072 159.006295,311.447942 C142.985231,348.616812 134.974818,390.270956 134.974818,436.411622 C134.974818,506.904307 152.918142,564.899692 188.805327,610.399516 C224.692512,655.89934 274.036651,689.543071 336.839225,711.331719 C365.036299,721.585201 393.553367,729.595613 422.391283,735.363196 C451.2292,741.130779 479.425851,747.539109 506.982082,754.588378 C534.538314,761.637646 561.773715,770.609308 588.689104,781.503632 C615.604493,792.397956 641.878645,807.457531 667.512349,826.682809 C716.216386,863.851679 752.743865,907.748738 777.095884,958.375303 C801.447902,1009.00187 813.623729,1068.91975 813.623729,1138.13075 C813.623729,1188.11647 804.011234,1235.2177 784.785956,1279.43584 C765.560679,1323.65397 738.96611,1362.74479 705.001453,1396.70944 C671.036795,1430.6741 631.945984,1457.58909 587.727845,1477.45521 C543.509706,1497.32133 496.408482,1507.25424 446.42276,1507.25424 C400.282094,1507.25424 355.744202,1497.96216 312.807748,1479.37772 C269.871295,1460.79329 232.062149,1435.15997 199.379177,1402.477 C166.696205,1369.79403 140.422053,1331.98488 120.555932,1289.04843 C100.689812,1246.11197 89.4752348,1200.29241 86.9118644,1151.58838 L131.129782,1151.58838 C131.129782,1195.16567 139.140194,1235.85857 155.161259,1273.66828 C171.182324,1311.47799 193.611478,1344.48089 222.449395,1372.67797 C251.287311,1400.87504 284.610626,1422.98378 322.420339,1439.00484 C360.230052,1455.02591 401.563779,1463.03632 446.42276,1463.03632 C490.000056,1463.03632 531.013367,1454.38507 569.463923,1437.08232 C607.914478,1419.77957 641.558209,1396.06875 670.396126,1365.94915 C699.234042,1335.82955 722.30403,1301.22457 739.60678,1262.13317 C756.90953,1223.04177 765.560775,1181.70805 765.560775,1138.13075 C765.560775,1018.93403 723.906631,926.65408 640.597094,861.288136 C616.245076,842.062858 590.932173,827.964532 564.657627,818.992736 C538.383081,810.02094 511.468096,802.330944 483.911864,795.922518 C456.355633,789.514092 428.479398,783.426179 400.282324,777.658596 C372.08525,771.891012 343.888599,763.239767 315.691525,751.7046 C247.762211,726.070897 193.611824,687.300502 153.238741,635.392252 C112.865658,583.484002 92.6794189,517.157789 92.6794189,436.411622 C92.6794189,385.144215 101.651081,337.722575 119.594673,294.145278 C137.538266,250.567982 162.530752,212.758837 194.572881,180.716707 C226.615011,148.674577 264.744573,124.002508 308.962712,106.699758 C353.180851,89.3970079 400.922908,80.7457627 452.190315,80.7457627 C499.612666,80.7457627 543.830142,90.3582574 584.844068,109.583535 C625.857994,128.808813 661.74464,155.082965 692.505085,188.40678 C723.265529,221.730594 747.617182,260.180573 765.560775,303.757869 C783.504367,347.335165 793.116862,392.834307 794.398547,440.256659 L752.103148,440.256659 Z M834.771429,440.256659 C834.771429,386.425881 824.838517,335.159243 804.972397,286.455206 C785.106277,237.751169 758.191292,195.456192 724.226634,159.569007 C690.261977,123.681822 649.889499,95.1647546 603.10799,74.0169492 C556.326481,52.8691437 506.021092,42.2953995 452.190315,42.2953995 C395.796167,42.2953995 343.247863,52.2283107 294.543826,72.094431 C245.839789,91.9605513 203.544812,119.195953 167.657627,153.801453 C131.770442,188.406953 103.894207,229.74068 84.0280872,277.803874 C64.1619669,325.867068 54.2290557,378.735789 54.2290557,436.411622 C54.2290557,529.974641 75.6969605,605.272515 118.633414,662.307506 C161.569868,719.342497 221.487751,762.598723 298.388862,792.077482 C324.022566,802.330963 350.617134,809.700543 378.173366,814.186441 C405.729597,818.672339 433.285415,823.799003 460.841646,829.566586 C488.397878,835.334169 515.633279,843.024165 542.548668,852.636804 C569.464057,862.249443 595.097376,876.027352 619.449395,893.970944 C656.618265,920.886333 683.853667,954.530064 701.156416,994.903148 C718.459166,1035.27623 727.110412,1083.01829 727.110412,1138.13075 C727.110412,1176.58131 720.381665,1212.78837 706.923971,1246.75303 C693.466277,1280.71768 674.241287,1310.51642 649.248426,1336.15012 C624.255565,1361.78382 594.777248,1381.97006 560.812591,1396.70944 C526.847933,1411.44882 488.718371,1418.8184 446.42276,1418.8184 C413.098946,1418.8184 380.096047,1411.76924 347.413075,1397.6707 C314.730103,1383.57217 285.572202,1364.34718 259.938499,1339.99516 C234.304795,1315.64314 213.477723,1287.44649 197.456659,1255.40436 C181.435594,1223.36223 173.425182,1188.75725 173.425182,1151.58838 L219.565617,1151.58838 C219.565617,1219.51769 239.43144,1273.34766 279.16368,1313.0799 C318.895921,1352.81214 374.64839,1372.67797 446.42276,1372.67797 C481.02826,1372.67797 512.749493,1366.59005 541.587409,1354.41404 C570.425326,1342.23803 595.417812,1325.57638 616.565617,1304.42857 C637.713423,1283.28077 654.054664,1258.6087 665.589831,1230.41162 C677.124997,1202.21455 682.892494,1171.45457 682.892494,1138.13075 C682.892494,1088.14503 675.843331,1046.49088 661.744794,1013.16707 C647.646257,979.843255 623.294604,950.364938 588.689104,924.731235 C565.618771,909.351013 540.305868,897.175186 512.749637,888.20339 C485.193405,879.231594 457.317171,871.541598 429.120097,865.133172 C400.923023,858.724746 373.687621,852.957249 347.413075,847.830508 C321.138529,842.703768 298.388958,836.295438 279.16368,828.605327 C236.868069,811.94342 199.37934,792.398014 166.696368,769.968523 C134.013396,747.539032 106.137161,720.624047 83.0668281,689.22276 C59.9964948,657.821473 42.3735879,621.61441 30.1975787,580.600484 C18.0215695,539.586558 11.9336562,491.524085 11.9336562,436.411622 C11.9336562,372.327363 23.1482333,313.370729 45.577724,259.539952 C68.0072146,205.709174 99.0876141,159.5692 138.819855,121.118644 C178.552095,82.6680886 225.332903,52.8693551 279.16368,31.7215496 C332.994458,10.5737441 390.669426,0 452.190315,0 C511.147833,0 566.579886,10.8941606 618.488136,32.6828087 C670.396385,54.4714568 715.895527,85.2314398 754.986925,124.96368 C794.078323,164.695921 824.838306,211.476728 847.267797,265.307506 C869.697287,319.138284 880.911864,377.454085 880.911864,440.256659 L834.771429,440.256659 Z M892.446973,1138.13075 C892.446973,1199.65164 880.91198,1257.64702 857.841646,1312.11864 C834.771313,1366.59026 803.370497,1414.33232 763.638257,1455.34625 C723.906016,1496.36017 676.804792,1528.72224 622.333172,1552.43341 C567.861552,1576.14459 509.225334,1588 446.42276,1588 C387.465242,1588 331.712773,1577.10584 279.16368,1555.31719 C226.614588,1533.52854 180.154197,1503.08898 139.781114,1463.99758 C99.4080306,1424.90618 66.7255487,1378.76621 41.7326877,1325.57627 C16.7398266,1272.38634 2.96191758,1214.39095 0.398547215,1151.58838 L42.6939467,1151.58838 C43.9756319,1207.98253 55.5106255,1259.89 77.2992736,1307.31235 C99.0879217,1354.7347 128.566239,1396.38884 165.735109,1432.27603 C202.903979,1468.16321 245.519372,1496.03945 293.582567,1515.90557 C341.645761,1535.77169 392.591983,1545.7046 446.42276,1545.7046 C504.098593,1545.7046 557.608147,1534.81044 606.953027,1513.02179 C656.297906,1491.23314 698.913299,1461.75483 734.800484,1424.58596 C770.687669,1387.41709 798.88432,1344.16086 819.391283,1294.81598 C839.898246,1245.4711 850.151574,1193.24321 850.151574,1138.13075 C850.151574,1062.51132 836.694081,997.146361 809.778692,942.033898 C782.863304,886.921435 743.131659,838.858962 690.582567,797.845036 C663.667178,777.338073 636.752193,761.317249 609.836804,749.782082 C582.921415,738.246916 555.365597,728.954838 527.168523,721.905569 C498.971449,714.856301 470.774798,708.447971 442.577724,702.680387 C414.38065,696.912804 386.183999,688.902392 357.986925,678.64891 C237.508518,636.353299 177.270218,555.608344 177.270218,436.411622 C177.270218,400.524437 183.678548,366.239873 196.4954,333.556901 C209.312251,300.873929 227.575991,272.356861 251.287167,248.004843 C274.998343,223.652824 303.835827,204.427835 337.800484,190.329298 C371.765142,176.230761 409.894704,169.181598 452.190315,169.181598 C527.80974,169.181598 587.727624,195.135334 631.945763,247.043584 C676.163901,298.951833 700.835971,363.355548 705.962712,440.256659 L659.822276,440.256659 C659.822276,372.327344 641.558536,318.497374 605.030508,278.765133 C568.502481,239.032893 517.556259,219.16707 452.190315,219.16707 C376.570889,219.16707 318.895921,238.39206 279.16368,276.842615 C239.43144,315.29317 219.565617,368.482308 219.565617,436.411622 C219.565617,490.2424 231.741444,533.178209 256.093462,565.220339 C280.445481,597.262469 320.177126,622.254955 375.289588,640.198547 C403.486662,649.170343 432.324146,656.860339 461.802906,663.268765 C491.281665,669.677191 520.439565,677.04677 549.277482,685.377724 C578.115398,693.708678 606.632466,703.962005 634.82954,716.138015 C663.026614,728.314024 690.582432,744.655265 717.497821,765.162228 C777.737024,810.021209 821.9545,861.92868 850.151574,920.886199 C878.348648,979.843717 892.446973,1052.25784 892.446973,1138.13075 L892.446973,1138.13075 Z" id="S" fill="#479FDF" sketch:type="MSShapeGroup"></path>
    </g>
</svg>