<?xml version="1.0" encoding="UTF-8" standalone="no"?>
<svg width="3396px" height="725px" viewBox="0 0 3396 725" version="1.1" xmlns="http://www.w3.org/2000/svg" xmlns:xlink="http://www.w3.org/1999/xlink" xmlns:sketch="http://www.bohemiancoding.com/sketch/ns">
    <!-- Generator: Sketch 3.4.4 (17249) - http://www.bohemiancoding.com/sketch -->
    <title>&lt;COCOA + PODS&gt;</title>
    <desc>Created with Sketch.</desc>
    <defs></defs>
    <g id="Page-1" stroke="none" stroke-width="1" fill="none" fill-rule="evenodd" sketch:type="MSPage">
        <g id="&lt;COCOA-+-PODS&gt;" sketch:type="MSLayerGroup" fill="#FFFFFF">
            <g id="&lt;COCOA" sketch:type="MSShapeGroup">
                <path d="M0,0 L0,725 L1981,725 L1981,0 L0,0 Z M201,150.710371 L149.991228,129 L78,299.07992 L150.718034,467 L200.647836,445.702686 L137.867809,298.634515 L201,150.710371 Z M415.08,404.983696 C353.068966,404.983696 311.565517,356.828804 311.565517,297 C311.565517,240.576087 348.674483,189.016304 414.103448,189.016304 C464.395862,189.016304 494.668966,219.173913 501.993103,259.059783 L584.511724,259.059783 C575.234483,180.747283 513.223448,118 413.126897,118 C296.428966,118 231,203.608696 231,297 C231,392.336957 299.846897,476 414.103448,476 C509.805517,476 571.816552,417.144022 585,345.154891 L501.016552,345.154891 C491.251034,378.717391 460.977931,404.983696 415.08,404.983696 Z M787.74359,478 C900.769231,478 968,392.391304 968,299 C968,205.608696 900.769231,120 787.74359,120 C674.230769,120 607,205.608696 607,299 C607,392.391304 674.230769,478 787.74359,478 C787.74359,478 674.230769,478 787.74359,478 Z M788,405 C725.560976,405 688,352.945946 688,297 C688,241.054054 725.560976,189 788,189 C849.95122,189 888,241.054054 888,297 C888,352.945946 849.95122,405 788,405 Z M1174.08,404.983696 C1112.06897,404.983696 1070.56552,356.828804 1070.56552,297 C1070.56552,240.576087 1107.67448,189.016304 1173.10345,189.016304 C1223.39586,189.016304 1253.66897,219.173913 1260.9931,259.059783 L1343.51172,259.059783 C1334.23448,180.747283 1272.22345,118 1172.1269,118 C1055.42897,118 990,203.608696 990,297 C990,392.336957 1058.8469,476 1173.10345,476 C1268.80552,476 1330.81655,417.144022 1344,345.154891 L1260.01655,345.154891 C1250.25103,378.717391 1219.97793,404.983696 1174.08,404.983696 Z M1548.74359,476 C1661.76923,476 1729,390.391304 1729,297 C1729,203.608696 1661.76923,118 1548.74359,118 C1435.23077,118 1368,203.608696 1368,297 C1368,390.391304 1435.23077,476 1548.74359,476 C1548.74359,476 1435.23077,476 1548.74359,476 Z M1549,405 C1486.56098,405 1449,352.945946 1449,297 C1449,241.054054 1486.56098,189 1549,189 C1610.95122,189 1649,241.054054 1649,297 C1649,352.945946 1610.95122,405 1549,405 Z M1858.85582,127 L1981,127 L1981,467.592481 L1902.52342,467.592481 L1902.52342,426.408661 L1799.7289,426.408661 L1781.38781,468 L1695,468 L1858.85582,127 Z M1904,197 L1904,363 L1827,363 L1904,197 Z" id="Background"></path>
            </g>
            <g id="PODS&gt;" transform="translate(1981.000000, 119.000000)" sketch:type="MSShapeGroup">
                <path d="M1292,31.7746032 L1343.00877,10 L1415,180.583115 L1342.28197,349 L1292.35216,327.639676 L1355.13219,180.136392 L1292,31.7746032 Z" id="Path-3"></path>
                <path d="M0,349 L78.9306569,349 L78.9306569,254.494286 L142.757299,254.494286 C218.277372,254.494286 267,197.498571 267,131.247143 C267,64.9957143 218.277372,8 142.757299,8 L0,8 L0,349 Z M130.255605,190 L76,190 L76,72 L130.255605,72 C163.493274,72 185,99.3057851 185,131 C185,162.694215 163.493274,190 130.255605,190 Z" id="P" stroke="#979797"></path>
                <path d="M460.244265,359 C573.582996,359 641,273.152174 641,179.5 C641,85.8478261 573.582996,0 460.244265,0 C346.417004,0 279,85.8478261 279,179.5 C279,273.152174 346.417004,359 460.244265,359 C460.244265,359 346.417004,359 460.244265,359 Z M460,288 C397.560976,288 360,235.704955 360,179.5 C360,123.295045 397.560976,71 460,71 C521.95122,71 560,123.295045 560,179.5 C560,235.704955 521.95122,288 460,288 Z" id="O" stroke="#979797"></path>
                <path d="M673,8 L673,349 L798.396135,349 C912.082126,349 976,265.698571 976,178.5 C976,91.3014286 911.594203,8 798.396135,8 L673,8 Z M794.316327,76 C858.034014,76 895,125.785714 895,178.5 C895,231.214286 858.034014,281 794.316327,281 L752,281 L752,76 L794.316327,76 Z" id="D" stroke="#979797"></path>
                <path d="M993,240.057065 C993,318.100543 1047.6186,362 1123.6945,362 C1196.8444,362 1250,321.027174 1250,254.690217 C1250,184.938859 1190.50474,163.476902 1130.03416,142.502717 C1099.3112,131.771739 1081.26755,119.089674 1081.26755,97.1399457 C1081.26755,74.7024457 1100.28653,62.5081522 1122.2315,62.5081522 C1150.02846,62.5081522 1165.14611,81.53125 1165.14611,111.773098 L1244.14801,111.773098 C1244.14801,53.7282609 1203.18406,3 1123.20683,3 C1060.29791,3 1002.75332,34.2173913 1002.75332,102.017663 C1002.75332,168.35462 1057.85958,188.841033 1118.33017,211.278533 C1148.56546,222.497283 1171.48577,232.252717 1171.48577,259.080163 C1171.48577,282.980978 1152.46679,299.077446 1126.13283,299.077446 C1094.9222,299.077446 1072.0019,277.127717 1072.0019,240.057065 C1072.0019,240.057065 1072.0019,277.127717 1072.0019,240.057065 L993,240.057065 L993,240.057065 Z" id="S" stroke="#979797"></path>
            </g>
        </g>
    </g>
</svg>