<?xml version="1.0" encoding="UTF-8" standalone="no"?>
<svg width="852px" height="1369px" viewBox="0 0 852 1369" version="1.1" xmlns="http://www.w3.org/2000/svg" xmlns:xlink="http://www.w3.org/1999/xlink" xmlns:sketch="http://www.bohemiancoding.com/sketch/ns">
    <!-- Generator: Sketch 3.4.4 (17249) - http://www.bohemiancoding.com/sketch -->
    <title>Shape</title>
    <desc>Created with Sketch.</desc>
    <defs></defs>
    <g id="Page-1" stroke="none" stroke-width="1" fill="none" fill-rule="evenodd" sketch:type="MSPage">
        <g id="icon" sketch:type="MSLayerGroup" transform="translate(-614.000000, -561.000000)" fill="#479FDF">
            <path d="M1272.9916,1317.05279 C1282.92616,1299.05434 1287.85395,1278.22848 1287.14321,1256.95023 C1287.15901,1256.27165 1287.1748,1255.60923 1287.20639,1254.94681 C1306.58589,1274.80328 1332.97802,1286.24215 1361.15489,1286.24215 C1381.35569,1286.24215 1401.03528,1280.28036 1418.06144,1268.95459 C1441.42108,1253.39578 1457.51538,1229.46785 1463.31186,1201.54924 C1469.09254,1173.61447 1463.91204,1145.03344 1448.67062,1121.08936 L1350.2253,967.100779 C1341.88595,953.981617 1330.75103,942.995128 1317.10483,934.529068 C1310.34491,929.294329 1303.56919,925.190552 1296.4618,922.040014 L1168.29177,865.491905 C1156.4777,853.471393 1142.95785,843.615865 1128.26923,836.216141 C1149.68619,807.473545 1162.4637,771.589731 1162.4637,732.716945 C1162.4637,638.459325 1087.52017,561.780089 995.392528,561.780089 C903.264889,561.780089 828.305558,638.459325 828.305558,732.716945 C828.305558,804.807706 872.150291,866.606711 934.000426,891.697914 C926.498175,903.6538 920.543757,916.724492 916.453056,930.5707 L855.771693,983.919802 L705.584531,1003.30773 C678.039425,1006.76524 653.305689,1021.07999 636.13738,1043.58614 C618.969071,1066.09228 611.38785,1094.10783 614.799399,1122.46267 C621.21185,1175.90871 665.767322,1216.25175 718.425225,1216.25175 C722.689662,1216.25175 726.985688,1215.96093 731.250125,1215.42776 L909.803693,1192.38845 C925.060902,1190.46581 939.544194,1185.03719 952.890303,1176.26416 C954.422342,1175.47248 955.875409,1174.6485 957.312683,1173.84067 L985.442174,1277.37218 L989.280168,1291.65461 C989.469698,1292.38166 989.706612,1293.20565 989.959319,1294.01348 L990.369969,1295.5322 L990.543705,1296.19462 L990.559499,1296.22693 L991.601917,1300.0722 L991.633506,1300.0722 L991.965184,1301.26779 L992.407422,1301.96252 L1002.2788,1334.11416 L897.563178,1519.41424 C886.554613,1538.88295 881.453082,1560.90439 882.732413,1583.49132 C882.542883,1585.36549 882.400735,1587.57895 882.400735,1590.03475 L882.337558,1813.04433 C881.78476,1876.37822 932.026149,1928.70945 994.381698,1929.27493 L994.587023,1929.27493 L995.36094,1929.27493 C1057.22687,1929.27493 1107.92629,1877.81615 1108.38432,1814.57921 L1108.4475,1668.9436 C1111.92222,1674.75997 1115.94975,1680.334 1120.49848,1685.5849 L1239.30255,1875.6027 C1259.8982,1909.17612 1295.68788,1929.4365 1334.90491,1929.4365 C1356.13233,1929.4365 1376.88593,1923.31315 1394.92292,1911.74502 C1447.70717,1877.81615 1463.69092,1806.33934 1430.58625,1752.34398 L1306.93336,1554.58716 L1247.76824,1361.75811 L1259.80343,1340.47987 C1264.82599,1333.11245 1269.26417,1325.2765 1272.9916,1317.05279 L1272.9916,1317.05279 Z M875.688195,732.668475 C875.688195,665.004623 929.246368,610.201427 995.392528,610.201427 C1061.53869,610.201427 1115.08107,665.02078 1115.08107,732.668475 C1115.08107,800.300013 1061.52289,855.119366 995.392528,855.119366 C929.246368,855.135523 875.688195,800.300013 875.688195,732.668475 L875.688195,732.668475 Z M1020.64747,877.270068 C1020.33159,877.415478 1020.0315,877.560887 1019.73141,877.673983 C1020.0315,877.544731 1020.33159,877.399321 1020.64747,877.270068 L1020.64747,877.270068 Z M942.197622,1125.80709 C938.21748,1129.29691 933.795101,1131.91428 929.246368,1134.09542 C921.902059,1139.29785 913.373185,1143.06234 903.880863,1144.25793 L725.469444,1167.29724 C723.116106,1167.58806 720.746974,1167.73347 718.441019,1167.73347 C690.011437,1167.73347 665.404055,1146.03515 661.850357,1116.45241 C657.980775,1084.46234 680.219026,1055.28352 711.538948,1051.35746 L875.861931,1030.14384 L913.562715,996.990494 C913.310008,1005.3273 914.226072,1014.03571 916.57941,1023.18035 L916.57941,1023.97202 L943.871808,1124.35299 L942.197622,1125.80709 L942.197622,1125.80709 Z M1061.00168,1814.23992 C1060.70159,1851.15776 1031.32436,1880.82128 995.345145,1880.82128 C958.528837,1880.48199 929.388516,1850.15605 929.720194,1813.07665 L929.767577,1590.00244 C929.767577,1588.14443 930.178226,1586.41567 930.351963,1584.60613 C928.835718,1570.8407 931.299615,1556.54211 938.580747,1543.64914 L1053.70476,1339.93054 L1035.60459,1280.95894 C1035.38347,1280.23189 960.740027,1002.59683 960.740027,1002.59683 C956.759885,987.215749 956.396618,971.770037 958.907898,957.051372 C961.450766,942.235767 967.026123,928.227993 975.096965,915.884348 C980.545969,907.596011 986.990007,900.260914 994.35011,893.879056 C998.582959,890.276133 1002.31039,887.529511 1006.24315,885.009081 C1017.26751,879.321957 1026.3176,875.508999 1031.13483,873.618676 C1032.38257,873.230918 1033.55134,872.64928 1034.83068,872.309991 C1043.70702,869.918814 1052.63075,868.755539 1061.41233,868.755539 C1092.02152,868.755539 1120.89334,882.698687 1140.44657,906.028821 L1277.54033,966.486828 C1282.37336,968.635656 1286.57462,971.527688 1290.46,974.759008 C1298.29393,979.234387 1305.32235,985.422366 1310.55024,993.662233 L1408.93238,1147.57003 C1426.14807,1174.60003 1418.59844,1210.77466 1392.17472,1228.3692 C1382.57184,1234.75106 1371.7844,1237.80466 1361.10751,1237.80466 C1342.43875,1237.80466 1324.11746,1228.43383 1313.18787,1211.21089 L1222.48171,1069.42054 L1191.01964,1055.54202 L1236.36482,1224.31389 C1239.23937,1235.28423 1240.21861,1246.31919 1239.6974,1257.07948 C1240.40814,1269.7301 1237.69154,1282.72001 1230.99479,1294.49817 C1230.29984,1295.98458 1229.73125,1296.87319 1229.28901,1297.84259 L1221.48667,1311.64033 C1220.93388,1312.52894 1220.42846,1313.44987 1219.82828,1314.30617 L1196.24752,1356.03867 L1107.13658,1514.0664 L1061.06486,1595.3018 L1061.00168,1814.23992 Z M1263.62563,1575.28377 L1390.43736,1778.12992 C1409.72209,1809.55451 1400.4351,1850.99619 1369.73115,1870.70725 C1358.86473,1877.6869 1346.81375,1880.99901 1334.88912,1880.99901 C1313.02993,1880.99901 1291.69195,1869.86711 1279.21452,1849.52594 L1158.18347,1655.96984 C1151.34458,1648.71553 1145.8166,1639.94249 1142.67356,1629.65074 L1126.31075,1576.23701 L1215.48487,1418.41932 L1263.62563,1575.28377 L1263.62563,1575.28377 Z" id="Shape" sketch:type="MSShapeGroup"></path>
        </g>
    </g>
</svg>