<?xml version="1.0" encoding="UTF-8" standalone="no"?>
<svg width="249px" height="307px" viewBox="0 0 249 307" version="1.1" xmlns="http://www.w3.org/2000/svg" xmlns:xlink="http://www.w3.org/1999/xlink" xmlns:sketch="http://www.bohemiancoding.com/sketch/ns">
    <!-- Generator: Sketch 3.4.4 (17249) - http://www.bohemiancoding.com/sketch -->
    <title>safewalk</title>
    <desc>Created with Sketch.</desc>
    <defs></defs>
    <g id="Page-1" stroke="none" stroke-width="1" fill="none" fill-rule="evenodd" sketch:type="MSPage">
        <g id="safewalk" sketch:type="MSLayerGroup">
            <path d="M204.677469,32.4326456 C183.62949,10.9095918 155.852323,0 122.133606,0 C74.7339178,0 38.3012664,24.1968051 19.5434379,68.131302 C-4.92478386,125.434555 6.47031872,201.801698 32.6037151,229.264513 C52.6500207,250.332643 47.4961125,294.829358 47.4490253,295.262823 C46.7384366,300.957956 50.7708133,306.150956 56.4555226,306.859092 C62.1359513,307.575812 67.3155434,303.524414 68.0218514,297.829281 C68.2958133,295.610453 74.4642366,243.139694 47.6074095,214.91295 C28.6526709,194.999297 16.5255764,128.022472 38.6009122,76.3113499 C49.4181264,50.9815267 72.6834842,20.789167 122.129326,20.789167 C150.073439,20.789167 172.867925,29.6043919 189.870685,46.9859209 C225.712606,83.6244673 228.396576,148.721512 227.887178,175.004101 C227.870056,175.789488 227.861495,176.368873 227.861495,176.729378 C227.861495,177.759395 227.733075,178.394572 227.63462,178.690702 C227.296448,178.815162 226.517369,178.999707 225.211769,178.999707 L210.807367,178.999707 C205.079851,178.999707 200.439621,183.651948 200.439621,189.39429 L200.439621,239.105463 C200.439621,245.508733 200.439621,252.770349 180.299141,252.770349 C172.058881,252.770349 168.625796,252.671639 167.255987,252.602971 C165.770599,252.251049 164.20816,252.22959 162.684247,252.555762 C157.500375,253.675905 153.917467,258.577067 154.478233,263.860194 C154.486794,263.915986 154.491075,263.976071 154.499636,264.031863 C154.512478,276.370603 154.521039,293.850842 154.503916,296.125462 C154.319848,300.545949 156.990977,304.760434 161.370086,306.335501 C162.525863,306.751799 163.707324,306.949219 164.863101,306.949219 C169.118071,306.949219 173.107641,304.30551 174.622993,300.060983 C175.19232,298.460166 175.25653,298.279913 175.243688,273.546641 C176.780443,273.555224 178.467021,273.559516 180.303422,273.559516 C207.044671,273.559516 221.179393,261.64995 221.179393,239.109755 L221.179393,199.788874 L225.21605,199.788874 C239.419262,199.788874 248.601266,190.741895 248.601266,176.73367 C248.601266,176.458999 248.609827,176.012659 248.622669,175.411816 C249.179154,146.498393 246.020031,74.6933656 204.677469,32.4326456 Z M47.6159708,187.432967 C53.3419185,187.432967 57.9837163,182.779153 57.9837163,177.038383 C57.9837163,171.297613 53.3419185,166.6438 47.6159708,166.6438 C41.8900231,166.6438 37.2482254,171.297613 37.2482254,177.038383 C37.2482254,182.779153 41.8900231,187.432967 47.6159708,187.432967 Z M47.6159708,146.176513 C53.3348261,146.176513 57.9708743,141.528464 57.9708743,135.794805 C57.9708743,130.061146 53.3348261,125.413096 47.6159708,125.413096 C41.8971155,125.413096 37.2610673,130.061146 37.2610673,135.794805 C37.2610673,141.528464 41.8971155,146.176513 47.6159708,146.176513 Z M47.6159708,104.94581 C53.3419185,104.94581 57.9837163,100.291996 57.9837163,94.551226 C57.9837163,88.8104561 53.3419185,84.1566425 47.6159708,84.1566425 C41.8900231,84.1566425 37.2482254,88.8104561 37.2482254,94.551226 C37.2482254,100.291996 41.8900231,104.94581 47.6159708,104.94581 Z M76.1294112,125.391638 C70.4018953,125.391638 65.7659464,130.061046 65.7659464,135.803388 C65.7659464,141.528563 70.4018953,146.197972 76.1294112,146.197972 C81.8398044,146.197972 86.4757534,141.532855 86.4757534,135.803388 C86.4757534,130.061046 81.8398044,125.391638 76.1294112,125.391638 Z M76.1294112,166.6438 C70.4018953,166.6438 65.7659464,171.29175 65.7659464,177.038383 C65.7659464,182.780726 70.4018953,187.428675 76.1294112,187.428675 C81.8398044,187.428675 86.4757534,182.780726 86.4757534,177.038383 C86.4757534,171.29175 81.8398044,166.6438 76.1294112,166.6438 Z M76.1294112,84.1566425 C70.4018953,84.1566425 65.7659464,88.8045921 65.7659464,94.551226 C65.7659464,100.293568 70.4018953,104.94581 76.1294112,104.94581 C81.8398044,104.94581 86.4757534,100.29786 86.4757534,94.551226 C86.4757534,88.8045921 81.8398044,84.1566425 76.1294112,84.1566425 Z M76.1294112,42.9044804 C70.4018953,42.9044804 65.7659464,47.5738886 65.7659464,53.3205226 C65.7659464,59.0456978 70.4018953,63.7108143 76.1294112,63.7108143 C81.8398044,63.7108143 86.4757534,59.0456978 86.4757534,53.3205226 C86.4757534,47.5738886 81.8398044,42.9044804 76.1294112,42.9044804 Z M76.1165692,207.895962 C73.4026342,207.895962 70.7229444,208.990355 68.8009305,210.938803 C66.861794,212.865792 65.770227,215.548127 65.770227,218.269087 C65.770227,221.011506 66.861794,223.693841 68.8009305,225.62083 C70.7229444,227.569278 73.4026342,228.680837 76.1165692,228.680837 C78.8476269,228.680837 81.5273167,227.569278 83.4493306,225.62083 C85.3884671,223.693841 86.480034,221.011506 86.480034,218.269087 C86.480034,215.548127 85.3884671,212.865792 83.4493306,210.938803 C81.523036,208.990355 78.8433462,207.895962 76.1165692,207.895962 Z M104.63429,125.391638 C98.9024937,125.391638 94.2665448,130.061046 94.2665448,135.786221 C94.2665448,141.532855 98.9024937,146.197972 104.63429,146.197972 C110.361806,146.197972 114.997755,141.532855 114.997755,135.786221 C114.997755,130.061046 110.361806,125.391638 104.63429,125.391638 Z M104.63429,104.94581 C110.360238,104.94581 115.002036,100.291996 115.002036,94.551226 C115.002036,88.8104561 110.360238,84.1566425 104.63429,84.1566425 C98.9083425,84.1566425 94.2665448,88.8104561 94.2665448,94.551226 C94.2665448,100.291996 98.9083425,104.94581 104.63429,104.94581 Z M104.63429,187.432967 C110.360238,187.432967 115.002036,182.779153 115.002036,177.038383 C115.002036,171.297613 110.360238,166.6438 104.63429,166.6438 C98.9083425,166.6438 94.2665448,171.297613 94.2665448,177.038383 C94.2665448,182.779153 98.9083425,187.432967 104.63429,187.432967 Z M104.63429,42.9044804 C98.9024937,42.9044804 94.2665448,47.5738886 94.2665448,53.3205226 C94.2665448,59.0456978 98.9024937,63.7108143 104.63429,63.7108143 C110.361806,63.7108143 114.997755,59.0456978 114.997755,53.3205226 C114.997755,47.5738886 110.361806,42.9044804 104.63429,42.9044804 Z M133.147731,84.1566425 C127.420215,84.1566425 122.784266,88.8045921 122.784266,94.551226 C122.784266,100.293568 127.420215,104.94581 133.147731,104.94581 C138.858124,104.94581 143.498353,100.29786 143.498353,94.551226 C143.498353,88.8045921 138.858124,84.1566425 133.147731,84.1566425 Z M133.147731,125.413096 C127.420215,125.413096 122.784266,130.061046 122.784266,135.786221 C122.784266,141.532855 127.420215,146.180805 133.147731,146.180805 C138.858124,146.180805 143.498353,141.532855 143.498353,135.786221 C143.498353,130.061046 138.858124,125.413096 133.147731,125.413096 Z" id="Shape" fill="#FFDD63" sketch:type="MSShapeGroup"></path>
            <path d="M198.652844,32.4326456 C177.604865,10.9095918 149.827698,0 116.108981,0 C68.7092928,0 32.2766414,24.1968051 13.5188129,68.131302 C-10.9494089,125.434555 0.445693708,201.801698 26.5790901,229.264513 C46.6253957,250.332643 41.4714875,294.829358 41.4244003,295.262823 C40.7138116,300.957956 44.7461883,306.150956 50.4308976,306.859092 C56.1113263,307.575812 61.2909183,303.524414 61.9972264,297.829281 C62.2711883,295.610453 68.4396115,243.139694 41.5827845,214.91295 C22.6280459,194.999297 10.5009514,128.022472 32.5762872,76.3113499 C43.3935014,50.9815267 66.6588592,20.789167 116.104701,20.789167 C144.048814,20.789167 166.8433,29.6043919 183.84606,46.9859209 C219.687981,83.6244673 222.371951,148.721512 221.862553,175.004101 C221.845431,175.789488 221.83687,176.368873 221.83687,176.729378 C221.83687,177.759395 221.70845,178.394572 221.609995,178.690702 C221.271823,178.815162 220.492744,178.999707 219.187144,178.999707 L204.782742,178.999707 C199.055226,178.999707 194.414996,183.651948 194.414996,189.39429 L194.414996,239.105463 C194.414996,245.508733 194.414996,252.770349 174.274516,252.770349 C166.034256,252.770349 162.601171,252.671639 161.231362,252.602971 C159.745974,252.251049 158.183535,252.22959 156.659622,252.555762 C151.47575,253.675905 147.892842,258.577067 148.453608,263.860194 C148.462169,263.915986 148.466449,263.976071 148.475011,264.031863 C148.487853,276.370603 148.496414,293.850842 148.479291,296.125462 C148.295223,300.545949 150.966352,304.760434 155.345461,306.335501 C156.501238,306.751799 157.682699,306.949219 158.838476,306.949219 C163.093446,306.949219 167.083016,304.30551 168.598368,300.060983 C169.167695,298.460166 169.231905,298.279913 169.219063,273.546641 C170.755818,273.555224 172.442396,273.559516 174.278797,273.559516 C201.020046,273.559516 215.154768,261.64995 215.154768,239.109755 L215.154768,199.788874 L219.191425,199.788874 C233.394637,199.788874 242.576641,190.741895 242.576641,176.73367 C242.576641,176.458999 242.585202,176.012659 242.598044,175.411816 C243.154529,146.498393 239.995406,74.6933656 198.652844,32.4326456 Z M41.5913458,187.432967 C47.3172935,187.432967 51.9590913,182.779153 51.9590913,177.038383 C51.9590913,171.297613 47.3172935,166.6438 41.5913458,166.6438 C35.8653981,166.6438 31.2236004,171.297613 31.2236004,177.038383 C31.2236004,182.779153 35.8653981,187.432967 41.5913458,187.432967 Z M41.5913458,146.176513 C47.3102011,146.176513 51.9462493,141.528464 51.9462493,135.794805 C51.9462493,130.061146 47.3102011,125.413096 41.5913458,125.413096 C35.8724905,125.413096 31.2364423,130.061146 31.2364423,135.794805 C31.2364423,141.528464 35.8724905,146.176513 41.5913458,146.176513 Z M41.5913458,104.94581 C47.3172935,104.94581 51.9590913,100.291996 51.9590913,94.551226 C51.9590913,88.8104561 47.3172935,84.1566425 41.5913458,84.1566425 C35.8653981,84.1566425 31.2236004,88.8104561 31.2236004,94.551226 C31.2236004,100.291996 35.8653981,104.94581 41.5913458,104.94581 Z M70.1047862,125.391638 C64.3772703,125.391638 59.7413214,130.061046 59.7413214,135.803388 C59.7413214,141.528563 64.3772703,146.197972 70.1047862,146.197972 C75.8151794,146.197972 80.4511284,141.532855 80.4511284,135.803388 C80.4511284,130.061046 75.8151794,125.391638 70.1047862,125.391638 Z M70.1047862,166.6438 C64.3772703,166.6438 59.7413214,171.29175 59.7413214,177.038383 C59.7413214,182.780726 64.3772703,187.428675 70.1047862,187.428675 C75.8151794,187.428675 80.4511284,182.780726 80.4511284,177.038383 C80.4511284,171.29175 75.8151794,166.6438 70.1047862,166.6438 Z M70.1047862,84.1566425 C64.3772703,84.1566425 59.7413214,88.8045921 59.7413214,94.551226 C59.7413214,100.293568 64.3772703,104.94581 70.1047862,104.94581 C75.8151794,104.94581 80.4511284,100.29786 80.4511284,94.551226 C80.4511284,88.8045921 75.8151794,84.1566425 70.1047862,84.1566425 Z M70.1047862,42.9044804 C64.3772703,42.9044804 59.7413214,47.5738886 59.7413214,53.3205226 C59.7413214,59.0456978 64.3772703,63.7108143 70.1047862,63.7108143 C75.8151794,63.7108143 80.4511284,59.0456978 80.4511284,53.3205226 C80.4511284,47.5738886 75.8151794,42.9044804 70.1047862,42.9044804 Z M70.0919442,207.895962 C67.3780092,207.895962 64.6983194,208.990355 62.7763055,210.938803 C60.837169,212.865792 59.745602,215.548127 59.745602,218.269087 C59.745602,221.011506 60.837169,223.693841 62.7763055,225.62083 C64.6983194,227.569278 67.3780092,228.680837 70.0919442,228.680837 C72.8230019,228.680837 75.5026917,227.569278 77.4247056,225.62083 C79.3638421,223.693841 80.455409,221.011506 80.455409,218.269087 C80.455409,215.548127 79.3638421,212.865792 77.4247056,210.938803 C75.498411,208.990355 72.8187212,207.895962 70.0919442,207.895962 Z M98.6096652,125.391638 C92.8778687,125.391638 88.2419198,130.061046 88.2419198,135.786221 C88.2419198,141.532855 92.8778687,146.197972 98.6096652,146.197972 C104.337181,146.197972 108.97313,141.532855 108.97313,135.786221 C108.97313,130.061046 104.337181,125.391638 98.6096652,125.391638 Z M98.6096652,104.94581 C104.335613,104.94581 108.977411,100.291996 108.977411,94.551226 C108.977411,88.8104561 104.335613,84.1566425 98.6096652,84.1566425 C92.8837175,84.1566425 88.2419198,88.8104561 88.2419198,94.551226 C88.2419198,100.291996 92.8837175,104.94581 98.6096652,104.94581 Z M98.6096652,187.432967 C104.335613,187.432967 108.977411,182.779153 108.977411,177.038383 C108.977411,171.297613 104.335613,166.6438 98.6096652,166.6438 C92.8837175,166.6438 88.2419198,171.297613 88.2419198,177.038383 C88.2419198,182.779153 92.8837175,187.432967 98.6096652,187.432967 Z M98.6096652,42.9044804 C92.8778687,42.9044804 88.2419198,47.5738886 88.2419198,53.3205226 C88.2419198,59.0456978 92.8778687,63.7108143 98.6096652,63.7108143 C104.337181,63.7108143 108.97313,59.0456978 108.97313,53.3205226 C108.97313,47.5738886 104.337181,42.9044804 98.6096652,42.9044804 Z M127.123106,84.1566425 C121.39559,84.1566425 116.759641,88.8045921 116.759641,94.551226 C116.759641,100.293568 121.39559,104.94581 127.123106,104.94581 C132.833499,104.94581 137.473728,100.29786 137.473728,94.551226 C137.473728,88.8045921 132.833499,84.1566425 127.123106,84.1566425 Z M127.123106,125.413096 C121.39559,125.413096 116.759641,130.061046 116.759641,135.786221 C116.759641,141.532855 121.39559,146.180805 127.123106,146.180805 C132.833499,146.180805 137.473728,141.532855 137.473728,135.786221 C137.473728,130.061046 132.833499,125.413096 127.123106,125.413096 Z" id="Shape" fill="#E83405" sketch:type="MSShapeGroup"></path>
        </g>
    </g>
</svg>